<?xml version="1.0" standalone="no"?>
<!DOCTYPE svg PUBLIC "-//W3C//DTD SVG 20010904//EN"
 "http://www.w3.org/TR/2001/REC-SVG-20010904/DTD/svg10.dtd">
<svg version="1.0" xmlns="http://www.w3.org/2000/svg"
 width="700.000000pt" height="700.000000pt" viewBox="0 0 700.000000 700.000000"
 preserveAspectRatio="xMidYMid meet">
<metadata>
Created by potrace 1.14, written by Peter Selinger 2001-2017
</metadata>
<g transform="translate(0.000000,700.000000) scale(0.100000,-0.100000)"
fill="#000000" stroke="none">
<path d="M975 6993 c-463 -59 -830 -387 -947 -850 l-23 -88 0 -2550 c0 -2448
1 -2553 19 -2630 99 -429 415 -747 846 -851 71 -17 203 -19 2575 -22 1873 -2
2523 0 2590 9 490 63 874 437 950 925 14 88 15 387 13 2609 -4 2808 3 2553
-75 2750 -135 342 -405 578 -774 677 l-84 23 -2530 1 c-1392 1 -2543 -1 -2560
-3z m5060 -802 c63 -32 124 -93 156 -156 l24 -50 0 -2485 0 -2485 -24 -50
c-32 -63 -93 -124 -156 -156 l-50 -24 -2485 0 -2485 0 -50 24 c-63 32 -124 93
-156 156 l-24 50 -3 2460 c-2 1745 1 2473 8 2505 24 97 116 195 214 226 33 10
519 12 2511 11 l2470 -2 50 -24z"/>
<path d="M1525 5708 c-3 -7 -4 -1005 -3 -2218 l3 -2205 325 0 325 0 5 1769 5
1770 492 -660 492 -659 1 -1107 0 -1108 330 0 330 0 2 660 3 661 495 -665 495
-665 328 -1 327 0 -2 2218 -3 2217 -319 3 c-224 2 -323 -1 -332 -9 -8 -6 -307
-404 -665 -885 -358 -481 -655 -874 -659 -874 -4 0 -295 386 -646 857 -352
471 -650 870 -662 885 l-24 28 -319 0 c-247 0 -321 -3 -324 -12z m3293 -2870
l-3 -662 -490 658 c-269 361 -490 661 -490 666 0 5 221 305 490 666 l490 658
3 -662 c1 -364 1 -960 0 -1324z"/>
</g>
</svg>
