<?xml version="1.0" standalone="no"?>
<!DOCTYPE svg PUBLIC "-//W3C//DTD SVG 20010904//EN"
 "http://www.w3.org/TR/2001/REC-SVG-20010904/DTD/svg10.dtd">
<svg version="1.0" xmlns="http://www.w3.org/2000/svg"
 width="672.000000pt" height="672.000000pt" viewBox="0 0 672.000000 672.000000"
 preserveAspectRatio="xMidYMid meet">
<metadata>
Created by potrace 1.14, written by Peter Selinger 2001-2017
</metadata>
<g transform="translate(0.000000,672.000000) scale(0.100000,-0.100000)"
fill="#000000" stroke="none">
<path d="M1221 6704 c-489 -82 -872 -476 -940 -968 -15 -108 -15 -4644 0
-4752 59 -427 357 -787 765 -923 190 -64 77 -61 2314 -61 2237 0 2124 -3 2314
61 339 113 602 377 716 717 63 189 60 51 60 2579 0 1584 -3 2326 -11 2379 -59
428 -357 786 -767 924 -188 63 -75 60 -2322 59 -1705 -1 -2059 -3 -2129 -15z
m4229 -815 c80 -37 125 -81 162 -157 l33 -67 0 -2305 0 -2305 -26 -55 c-37
-80 -81 -125 -157 -162 l-67 -33 -2035 0 -2035 0 -67 33 c-76 37 -120 82 -157
162 l-26 55 -3 2285 c-2 2520 -7 2335 60 2436 37 56 109 107 177 128 39 13
339 14 2066 13 l2020 -2 55 -26z"/>
<path d="M1325 5628 c-3 -7 -4 -1032 -3 -2278 l3 -2265 337 -3 338 -2 2 1822
3 1822 505 -677 505 -677 5 -1143 5 -1142 335 0 335 0 5 680 5 680 509 -683
510 -682 335 2 336 3 0 2275 0 2275 -336 3 -335 2 -680 -910 c-373 -500 -681
-910 -684 -910 -3 0 -311 409 -685 910 l-678 910 -334 0 c-258 0 -335 -3 -338
-12z m3393 -2950 l-3 -682 -505 677 c-278 373 -505 682 -505 688 0 5 227 314
505 686 l505 677 3 -682 c1 -375 1 -989 0 -1364z"/>
</g>
</svg>
